# xmcd CD database file
#
# Track frame offsets:
#	150
#	26675
#	46928
#	67323
#	90423
#	108798
#	126494
#	147421
#	170671
#	190100
#	210128
#	236680
#
# Disc length: 3434 seconds
#
# Revision: 0
# Processed by: cddbd v1.5.2PL0 Copyright (c) Steve Scherf et al.
# Submitted via: jetAudio 7
#
DISCID=a70d680c
DTITLE=¤ô¯[¼þ - ¤ßÆFµÐ'£
DYEAR=2004
DGENRE=¬y¦æ¦±
TTITLE0=水琉璃
TTITLE1=寧靜夜
TTITLE2=天空
TTITLE3=佛陀圓無曲
TTITLE4=豊收年華
TTITLE5=樂土
TTITLE6=清净法身佛
TTITLE7=秋鈴 - 黄思婷_水琉璃
TTITLE8=祈福
TTITLE9=情缘 (音乐版)
TTITLE10=水琉璃 (音樂版)
TTITLE11=清净法身佛 (音乐版)
EXTD=YEAR: 2004
EXTT0=
EXTT1=
EXTT2=
EXTT3=
EXTT4=
EXTT5=
EXTT6=
EXTT7=
EXTT8=
EXTT9=
EXTT10=
EXTT11=
PLAYORDER=
